# xmcd
#
# Track frame offsets:
# 150
# 13418
# 25343
# 40199
# 53314
# 66542
# 79399
# 94645
# 109337
# 122870
# 137571
# 151580
# 166010
# 180889
# 196096
# 210352
#
# Disc length: 2994 seconds
#
#
# Revision: 2
# Processed by: cddbd v1.4PL0 Copyright (c) Steve Scherf et al.
# Submitted via: FreeRIP 2.35 
#
DISCID=c60bb010
DTITLE=Billie Holiday - KBCD100
DYEAR=1900
DGENRE=
TTITLE0=I'll get by
TTITLE1=I Hear Music
TTITLE2=It's The Same Old Story
TTITLE3=St. Louis Blues
TTITLE4=Let's Do It
TTITLE5=I Gotta Right To Sing The Blues
TTITLE6=Yesterdays
TTITLE7=Fine and Mellow
TTITLE8=Georgia On My Mind
TTITLE9=Embraceable You
TTITLE10=Billies' Blues
TTITLE11=He's Funny That Way
TTITLE12=Lover Come Back To Me
TTITLE13=Don't Explain
TTITLE14=God Bless The Child
TTITLE15=Baby, I Don't Cry Over You
EXTD=Hey Presto!\nEngland\n\nJazz Vocal
EXTT0=
EXTT1=
EXTT2=
EXTT3=
EXTT4=
EXTT5=
EXTT6=
EXTT7=
EXTT8=
EXTT9=
EXTT10=
EXTT11=
EXTT12=
EXTT13=
EXTT14=
EXTT15=
PLAYORDER=
